<svg width="50" height="50" viewBox="0 0 50 50" fill="none" xmlns="http://www.w3.org/2000/svg">
<path fill-rule="evenodd" clip-rule="evenodd" d="M25 0C38.8071 0 50 11.1929 50 25C50 38.8071 38.8071 50 25 50C11.1929 50 0 38.8071 0 25C0 11.1929 11.1929 0 25 0ZM17.0291 24.6143L9.86328 31.4665L17.0291 38.3187V34.9847H29.4616C32.4009 34.9847 35.0705 33.7848 37.0036 31.8517C38.9368 29.9185 40.1367 27.2488 40.1367 24.3096C40.1367 21.3703 38.9368 18.7007 37.0037 16.7676C35.0705 14.8345 32.401 13.6346 29.4617 13.6346H13.0724V20.6709H29.4617C30.4587 20.6709 31.3676 21.0813 32.0289 21.7425C32.6901 22.4037 33.1005 23.3126 33.1005 24.3096C33.1005 25.3065 32.69 26.2154 32.0289 26.8768C31.3677 27.538 30.4588 27.9484 29.4617 27.9484H17.0291V24.6143Z" fill="#00C54A"/>
</svg>
