<svg width="50" height="50" viewBox="0 0 50 50" fill="none" xmlns="http://www.w3.org/2000/svg">
<path d="M42.7539 6.44531H41.5039V10.8203C41.5039 12.3438 40.2734 13.5742 38.75 13.5742H36.3477C34.8242 13.5742 33.5938 12.3438 33.5938 10.8203V6.44531H28.9062V10.8203C28.9062 12.3438 27.6758 13.5742 26.1523 13.5742H23.75C22.2266 13.5742 20.9961 12.3438 20.9961 10.8203V6.44531H16.3086V10.8203C16.3086 12.3438 15.0781 13.5742 13.5547 13.5742H11.1523C9.62891 13.5742 8.39844 12.3438 8.39844 10.8203V6.44531H7.24609C3.24219 6.44531 0 9.6875 0 13.6914V42.7441C0 46.748 3.24219 49.9902 7.24609 49.9902H42.7441C46.748 49.9902 49.9902 46.748 49.9902 42.7441V13.6914C50 9.6875 46.7578 6.44531 42.7539 6.44531ZM5.71289 24.8535C5.71289 23.5352 6.78711 22.4609 8.10547 22.4609H12.4023C13.7207 22.4609 14.7949 23.5352 14.7949 24.8535C14.7949 26.1719 13.7207 27.2461 12.4023 27.2461H8.10547C6.78711 27.2461 5.71289 26.1719 5.71289 24.8535ZM14.8438 35.791C14.8438 37.1094 13.7695 38.1836 12.4512 38.1836H8.1543C6.83594 38.1836 5.76172 37.1094 5.76172 35.791C5.76172 34.4727 6.83594 33.3984 8.1543 33.3984H12.4512C13.7695 33.3984 14.8438 34.4727 14.8438 35.791ZM20.459 24.8535C20.459 23.5352 21.5332 22.4609 22.8516 22.4609H27.1484C28.4668 22.4609 29.541 23.5352 29.541 24.8535C29.541 26.1719 28.4668 27.2461 27.1484 27.2461H22.8516C21.5332 27.2461 20.459 26.1719 20.459 24.8535ZM29.5898 35.791C29.5898 37.1094 28.5156 38.1836 27.1973 38.1836H22.9004C21.582 38.1836 20.5078 37.1094 20.5078 35.791C20.5078 34.4727 21.582 33.3984 22.9004 33.3984H27.1973C28.5156 33.3984 29.5898 34.4727 29.5898 35.791ZM35.2051 24.8535C35.2051 23.5352 36.2793 22.4609 37.5977 22.4609H41.8945C43.2129 22.4609 44.2871 23.5352 44.2871 24.8535C44.2871 26.1719 43.2129 27.2461 41.8945 27.2461H37.5977C36.2793 27.2461 35.2051 26.1719 35.2051 24.8535ZM44.3359 35.791C44.3359 37.1094 43.2617 38.1836 41.9434 38.1836H37.6465C36.3281 38.1836 35.2539 37.1094 35.2539 35.791C35.2539 34.4727 36.3281 33.3984 37.6465 33.3984H41.9434C43.2617 33.3984 44.3359 34.4727 44.3359 35.791Z" fill="#00C54A"/>
<path d="M11.1523 0H13.5547C14.2676 0 14.8438 0.576172 14.8438 1.28906V10.8203C14.8438 11.5332 14.2676 12.1094 13.5547 12.1094H11.1523C10.4395 12.1094 9.86328 11.5332 9.86328 10.8203V1.28906C9.86328 0.576172 10.4395 0 11.1523 0Z" fill="#00C54A"/>
<path d="M23.75 0H26.1523C26.8652 0 27.4414 0.576172 27.4414 1.28906V10.8203C27.4414 11.5332 26.8652 12.1094 26.1523 12.1094H23.75C23.0371 12.1094 22.4609 11.5332 22.4609 10.8203V1.28906C22.4609 0.576172 23.0371 0 23.75 0Z" fill="#00C54A"/>
<path d="M36.3477 0H38.75C39.4629 0 40.0391 0.576172 40.0391 1.28906V10.8203C40.0391 11.5332 39.4629 12.1094 38.75 12.1094H36.3477C35.6348 12.1094 35.0586 11.5332 35.0586 10.8203V1.28906C35.0586 0.576172 35.6348 0 36.3477 0Z" fill="#00C54A"/>
</svg>
