<svg width="50" height="50" viewBox="0 0 50 50" fill="none" xmlns="http://www.w3.org/2000/svg">
<g clip-path="url(#clip0_237_334)">
<path d="M20.1719 20.7334C20.5821 20.7334 20.9831 20.6117 21.3242 20.3838C21.6654 20.1559 21.9312 19.832 22.0882 19.453C22.2452 19.0739 22.2863 18.6569 22.2062 18.2545C22.1262 17.8522 21.9287 17.4826 21.6386 17.1925C21.3485 16.9024 20.9789 16.7049 20.5765 16.6248C20.1742 16.5448 19.7571 16.5859 19.3781 16.7429C18.9991 16.8998 18.6751 17.1657 18.4472 17.5068C18.2193 17.8479 18.0977 18.2489 18.0977 18.6592C18.0979 19.2092 18.3165 19.7367 18.7055 20.1256C19.0944 20.5145 19.6218 20.7331 20.1719 20.7334Z" fill="#00C54A"/>
<path d="M25 0C11.1934 0 0 11.1934 0 25C0 38.8066 11.1934 50 25 50C38.8066 50 50 38.8076 50 25C50 11.1924 38.8066 0 25 0ZM20.1719 13.7471C21.1434 13.7469 22.0932 14.0348 22.9012 14.5744C23.7091 15.1141 24.3388 15.8812 24.7108 16.7787C25.0827 17.6763 25.1801 18.664 24.9907 19.6169C24.8013 20.5698 24.3335 21.4452 23.6466 22.1322C22.9597 22.8193 22.0844 23.2872 21.1315 23.4768C20.1786 23.6664 19.1909 23.5692 18.2933 23.1975C17.3957 22.8257 16.6284 22.1961 16.0886 21.3883C15.5489 20.5805 15.2607 19.6307 15.2607 18.6592C15.2623 17.3571 15.7802 16.1087 16.7008 15.1879C17.6215 14.267 18.8697 13.7489 20.1719 13.7471ZM28.4727 36.2529C28.2861 36.2532 28.1013 36.2167 27.9289 36.1455C27.7565 36.0743 27.5998 35.9699 27.4677 35.8381C27.3357 35.7063 27.2309 35.5498 27.1593 35.3775C27.0878 35.2052 27.0509 35.0205 27.0508 34.834C27.0508 33.0093 26.3259 31.2594 25.0357 29.9692C23.7455 28.6789 21.9956 27.9541 20.1709 27.9541C18.3462 27.9541 16.5963 28.6789 15.3061 29.9692C14.0159 31.2594 13.291 33.0093 13.291 34.834C13.291 35.2103 13.1415 35.5712 12.8754 35.8373C12.6093 36.1034 12.2484 36.2529 11.8721 36.2529C11.4957 36.2529 11.1348 36.1034 10.8687 35.8373C10.6026 35.5712 10.4531 35.2103 10.4531 34.834C10.4893 32.2808 11.529 29.8444 13.3473 28.0517C15.1656 26.259 17.6165 25.254 20.1699 25.254C22.7234 25.254 25.1742 26.259 26.9925 28.0517C28.8109 29.8444 29.8505 32.2808 29.8867 34.834C29.8867 35.2098 29.7376 35.5703 29.4722 35.8363C29.2067 36.1023 28.8465 36.2522 28.4707 36.2529H28.4727ZM38.1289 24.6729H31.4453L32.6572 25.8789C32.789 26.0107 32.8935 26.1671 32.9648 26.3393C33.0362 26.5114 33.0729 26.696 33.0729 26.8823C33.0729 27.0687 33.0362 27.2532 32.9648 27.4254C32.8935 27.5975 32.789 27.754 32.6572 27.8857C32.5255 28.0175 32.369 28.122 32.1969 28.1934C32.0247 28.2647 31.8402 28.3014 31.6538 28.3014C31.4675 28.3014 31.2829 28.2647 31.1108 28.1934C30.9386 28.122 30.7822 28.0175 30.6504 27.8857L27.0176 24.2529C26.7519 23.9866 26.6027 23.6257 26.6027 23.2495C26.6027 22.8733 26.7519 22.5125 27.0176 22.2461L30.6211 18.6426C30.8872 18.3765 31.2482 18.2269 31.6245 18.2269C32.0009 18.2269 32.3618 18.3765 32.6279 18.6426C32.8941 18.9087 33.0436 19.2696 33.0436 19.646C33.0436 20.0224 32.8941 20.3833 32.6279 20.6494L31.4453 21.835H38.125C38.5013 21.835 38.8622 21.9845 39.1283 22.2506C39.3944 22.5167 39.5439 22.8776 39.5439 23.2539C39.5439 23.6302 39.3944 23.9911 39.1283 24.2573C38.8622 24.5234 38.5013 24.6729 38.125 24.6729H38.1289Z" fill="#00C54A"/>
</g>
<defs>
<clipPath id="clip0_237_334">
<rect width="50" height="50" fill="white"/>
</clipPath>
</defs>
</svg>
