<svg width="90" height="90" viewBox="0 0 90 90" fill="none" xmlns="http://www.w3.org/2000/svg">
<g clip-path="url(#clip0_229_234)">
<path d="M90 45C90 20.1472 69.8528 0 45 0C20.1472 0 0 20.1472 0 45C0 69.8528 20.1472 90 45 90C69.8528 90 90 69.8528 90 45Z" fill="#0DB14B"/>
<path d="M61.9579 67.5H28.4211L28.6816 66.4046C28.6816 66.3573 29.9428 61.4013 36.2783 62.5086C37.9545 61.918 39.6865 61.4994 41.4474 61.2592V48.3987C36.3939 48.1643 31.6248 45.9923 28.1306 42.3338C24.6365 38.6754 22.6858 33.8116 22.6836 28.7527V27.8645H28.9303C34.1388 27.877 39.1297 29.9549 42.8083 33.6424C46.4868 37.3298 48.5527 42.3257 48.5527 47.5342V61.1527C50.3018 61.3845 52.0146 61.8361 53.6507 62.4967C54.7106 62.4198 58.6066 62.2777 60.6435 64.0303C61.0146 64.3365 61.3175 64.717 61.5327 65.1474C61.7479 65.5777 61.8705 66.0483 61.8928 66.529L61.9579 67.5ZM30.9731 65.7237H59.8027C59.7152 65.6073 59.616 65.5002 59.5066 65.404C58.0915 64.2198 54.7698 64.2198 53.5856 64.3086H53.3665L53.1592 64.2198C51.3772 63.4831 49.4954 63.0162 47.5757 62.8342L46.7764 62.7632V47.5342C46.7748 42.7973 44.8956 38.2541 41.5505 34.9001C38.2054 31.5461 33.6672 29.6549 28.9303 29.6408H24.4836C24.7127 34.2211 26.6911 38.5388 30.0106 41.703C33.3302 44.8673 37.7377 46.6366 42.3237 46.6461H43.2237V62.8283L42.4362 62.9171C40.4817 63.1329 38.5596 63.5802 36.7106 64.2494L36.4619 64.35L36.2073 64.2967C33.1579 63.6928 31.654 64.7941 30.9731 65.7237Z" fill="white"/>
<path d="M48.9671 43.0283L48.7717 42.2941C47.912 39.0714 46.287 36.1038 44.0349 33.6434L43.6027 33.1579L43.9165 32.5658C45.6167 29.502 48.1054 26.9487 51.1246 25.1705C54.1438 23.3923 57.5836 22.4539 61.0875 22.4526H67.3342V23.3408C67.3612 28.2109 65.5739 32.9165 62.3207 36.5407C59.0676 40.165 54.5816 42.4482 49.7369 42.9454L48.9671 43.0283ZM45.7816 32.9329C47.8341 35.3082 49.3652 38.0878 50.2757 41.0921C54.3742 40.4966 58.1373 38.4923 60.9186 35.4236C63.6999 32.355 65.3256 28.4135 65.5165 24.2763H61.0698C57.9919 24.2815 54.9675 25.0811 52.2893 26.5976C49.611 28.1141 47.3694 30.2963 45.7816 32.9329Z" fill="white"/>
</g>
<defs>
<clipPath id="clip0_229_234">
<rect width="90" height="90" fill="white"/>
</clipPath>
</defs>
</svg>
