<svg width="44" height="44" viewBox="0 0 44 44" fill="none" xmlns="http://www.w3.org/2000/svg">
<path d="M21.875 0C17.5485 0 13.3192 1.28295 9.72191 3.6866C6.12459 6.09026 3.32081 9.50667 1.66514 13.5038C0.00947807 17.5009 -0.42372 21.8993 0.420332 26.1426C1.26438 30.3859 3.34777 34.2837 6.40705 37.343C9.46632 40.4022 13.3641 42.4856 17.6074 43.3297C21.8507 44.1737 26.2491 43.7405 30.2462 42.0849C34.2433 40.4292 37.6598 37.6254 40.0634 34.0281C42.4671 30.4308 43.75 26.2015 43.75 21.875C43.7438 16.0753 41.4371 10.5149 37.3361 6.41389C33.2351 2.31288 27.6747 0.00620401 21.875 0ZM32.0938 37.5781C31.026 36.268 29.7106 35.181 28.2226 34.3794C26.7347 33.5778 25.1034 33.0772 23.4219 32.9062C23.4219 32.875 23.4375 32.8438 23.4375 32.8125C23.4375 32.8125 23.9219 25.7812 28.125 23.4375C26.4309 25.5457 25.3546 28.0824 25.0156 30.7656C27.2678 30.0955 29.2433 28.716 30.6482 26.8325C32.053 24.949 32.8122 22.6622 32.8125 20.3125C32.8125 19.8981 32.6479 19.5007 32.3549 19.2076C32.0618 18.9146 31.6644 18.75 31.25 18.75C29.7935 18.7492 28.3516 19.0406 27.0097 19.6068C25.6678 20.1731 24.4531 21.0028 23.4375 22.0469C23.4375 22.0469 23.0469 15.3813 26.5625 12.5C26.5625 12.5 24.25 16.0469 24.9219 18.4531C26.7292 17.9993 28.3332 16.955 29.4796 15.486C30.626 14.0169 31.249 12.2072 31.25 10.3438C31.2475 9.67318 30.9801 9.03078 30.5059 8.55661C30.0317 8.08245 29.3893 7.81497 28.7188 7.8125C27.3773 7.81242 26.0555 8.13455 24.8646 8.75179C23.6736 9.36902 22.6483 10.2633 21.875 11.3594C21.1017 10.2633 20.0764 9.36902 18.8854 8.75179C17.6945 8.13455 16.3727 7.81242 15.0313 7.8125C14.3607 7.81497 13.7183 8.08245 13.2441 8.55661C12.77 9.03078 12.5025 9.67318 12.5 10.3438C12.501 12.2072 13.1241 14.0169 14.2704 15.486C15.4168 16.955 17.0208 17.9993 18.8281 18.4531C19.5 16.0469 17.1875 12.5 17.1875 12.5C21.1922 15.4297 20.3125 22.0469 20.3125 22.0469C19.2969 21.0028 18.0822 20.1731 16.7403 19.6068C15.3984 19.0406 13.9565 18.7492 12.5 18.75C12.0856 18.75 11.6882 18.9146 11.3952 19.2076C11.1021 19.5007 10.9375 19.8981 10.9375 20.3125C10.9379 22.6622 11.697 24.949 13.1019 26.8325C14.5067 28.716 16.4823 30.0955 18.7344 30.7656C18.3954 28.0824 17.3191 25.5457 15.625 23.4375C19.8281 25.7812 20.3125 32.8125 20.3125 32.8125C20.3125 32.8438 20.3281 32.875 20.3281 32.9062C18.6467 33.0772 17.0153 33.5778 15.5274 34.3794C14.0394 35.181 12.724 36.268 11.6563 37.5781C8.26661 35.3748 5.6799 32.1349 4.28183 28.3415C2.88376 24.5481 2.74923 20.4044 3.89829 16.5283C5.04735 12.6522 7.41845 9.25131 10.658 6.83273C13.8976 4.41416 17.8322 3.10745 21.875 3.10745C25.9178 3.10745 29.8524 4.41416 33.092 6.83273C36.3316 9.25131 38.7027 12.6522 39.8517 16.5283C41.0008 20.4044 40.8663 24.5481 39.4682 28.3415C38.0701 32.1349 35.4834 35.3748 32.0938 37.5781Z" fill="#00C54A"/>
</svg>
