<svg width="50" height="50" viewBox="0 0 50 50" fill="none" xmlns="http://www.w3.org/2000/svg">
<path d="M26.3868 0.419868C25.547 -0.139956 24.4531 -0.139956 23.6133 0.419868L1.1135 15.4198C-0.0352927 16.1857 -0.34574 17.7379 0.420127 18.8867C1.18602 20.0354 2.73818 20.3459 3.88697 19.5801L25 5.50461L46.1131 19.5801C47.2618 20.3459 48.814 20.0354 49.5798 18.8867C50.3458 17.7379 50.0353 16.1857 48.8866 15.4198L26.3868 0.419868Z" fill="#00C54A"/>
<path d="M15.0003 32.5C15.0003 29.1032 16.6939 26.102 19.2828 24.2947C18.0809 21.756 15.4957 20 12.5004 20C8.35828 20 5.00044 23.3577 5.00044 27.5C5.00044 28.7292 5.29611 29.8892 5.8202 30.913C2.38496 32.496 0.000488281 35.9695 0.000488281 40C0.000488281 42.7614 2.23904 44.9999 5.00044 44.9999H10.0004C10.0004 40.7887 12.0828 37.0675 15.2677 34.8042C15.0928 34.0635 15.0003 33.2917 15.0003 32.5Z" fill="#00C54A"/>
<path d="M44.1799 30.913C44.7039 29.8892 44.9996 28.7292 44.9996 27.5C44.9996 23.3577 41.6417 20 37.4997 20C34.5042 20 31.919 21.756 30.7173 24.2947C33.306 26.102 34.9997 29.1032 34.9997 32.5C34.9997 33.2917 34.9072 34.0635 34.7322 34.8042C37.9172 37.0677 39.9997 40.7887 39.9997 44.9999H44.9996C47.7611 44.9999 49.9996 42.7614 49.9996 40C49.9996 35.9695 47.6151 32.496 44.1799 30.913Z" fill="#00C54A"/>
<path d="M31.68 35.913C32.204 34.8892 32.4998 33.7292 32.4998 32.5C32.4998 28.3577 29.1421 25 24.9999 25C20.8577 25 17.4999 28.3577 17.4999 32.5C17.4999 33.7292 17.7956 34.8892 18.3197 35.913C14.8845 37.496 12.5 40.9695 12.5 45C12.5 47.7614 14.7386 49.9999 17.4999 49.9999H32.4998C35.2613 49.9999 37.4997 47.7614 37.4997 45C37.4997 40.9695 35.1153 37.496 31.68 35.913Z" fill="#00C54A"/>
</svg>
