<svg width="50" height="50" viewBox="0 0 50 50" fill="none" xmlns="http://www.w3.org/2000/svg">
<g clip-path="url(#clip0_245_382)">
<rect width="50" height="50" fill="white"/>
<path d="M37.5 0H12.5C9.18479 0 6.00537 1.31696 3.66117 3.66117C1.31696 6.00537 0 9.18479 0 12.5L0 37.5C0 40.8152 1.31696 43.9946 3.66117 46.3388C6.00537 48.683 9.18479 50 12.5 50H37.5C40.8152 50 43.9946 48.683 46.3388 46.3388C48.683 43.9946 50 40.8152 50 37.5V12.5C50 9.18479 48.683 6.00537 46.3388 3.66117C43.9946 1.31696 40.8152 0 37.5 0ZM38.6094 27.6719C38.4641 27.8183 38.2913 27.9346 38.1009 28.0139C37.9105 28.0932 37.7063 28.1341 37.5 28.1341C37.2937 28.1341 37.0895 28.0932 36.8991 28.0139C36.7087 27.9346 36.5359 27.8183 36.3906 27.6719L35.9375 27.2188V34.375C35.9375 35.2038 35.6083 35.9987 35.0222 36.5847C34.4362 37.1708 33.6413 37.5 32.8125 37.5H28.125V29.6875H21.875V37.5H17.1875C16.3587 37.5 15.5638 37.1708 14.9778 36.5847C14.3917 35.9987 14.0625 35.2038 14.0625 34.375V27.2188L13.6094 27.6719C13.3152 27.9661 12.9161 28.1314 12.5 28.1314C12.0839 28.1314 11.6848 27.9661 11.3906 27.6719C11.0964 27.3776 10.9311 26.9786 10.9311 26.5625C10.9311 26.1464 11.0964 25.7474 11.3906 25.4531L23.8906 12.9531C24.0359 12.8067 24.2087 12.6904 24.3991 12.6111C24.5895 12.5318 24.7937 12.4909 25 12.4909C25.2063 12.4909 25.4105 12.5318 25.6009 12.6111C25.7913 12.6904 25.9641 12.8067 26.1094 12.9531L38.6094 25.4531C38.7558 25.5984 38.8721 25.7712 38.9514 25.9616C39.0307 26.152 39.0716 26.3562 39.0716 26.5625C39.0716 26.7688 39.0307 26.973 38.9514 27.1634C38.8721 27.3538 38.7558 27.5266 38.6094 27.6719Z" fill="#00C54A"/>
</g>
<defs>
<clipPath id="clip0_245_382">
<rect width="50" height="50" fill="white"/>
</clipPath>
</defs>
</svg>
