<svg width="23" height="31" viewBox="0 0 23 31" fill="none" xmlns="http://www.w3.org/2000/svg">
<path d="M11.5 0C8.45001 0 5.52494 1.22477 3.36827 3.40488C1.2116 5.58499 0 8.54186 0 11.625C0 18.0446 11.5 31 11.5 31C11.5 31 23 18.0446 23 11.625C23 8.54186 21.7884 5.58499 19.6317 3.40488C17.4751 1.22477 14.55 0 11.5 0ZM11.5 18.7292C10.11 18.7292 8.75129 18.3125 7.59558 17.5319C6.43986 16.7513 5.5391 15.6418 5.00718 14.3436C4.47526 13.0455 4.33609 11.6171 4.60726 10.239C4.87843 8.86097 5.54776 7.59513 6.53061 6.6016C7.51346 5.60806 8.76569 4.93145 10.1289 4.65734C11.4922 4.38322 12.9053 4.52391 14.1894 5.06161C15.4736 5.5993 16.5712 6.50986 17.3434 7.67814C18.1156 8.84641 18.5278 10.2199 18.5278 11.625C18.5278 13.5091 17.7874 15.3161 16.4694 16.6484C15.1514 17.9807 13.3639 18.7292 11.5 18.7292Z" fill="#3BFA83"/>
</svg>
