<svg width="90" height="90" viewBox="0 0 90 90" fill="none" xmlns="http://www.w3.org/2000/svg">
<g clip-path="url(#clip0_229_250)">
<path d="M45 90C69.8528 90 90 69.8528 90 45C90 20.1472 69.8528 0 45 0C20.1472 0 0 20.1472 0 45C0 69.8528 20.1472 90 45 90Z" fill="#0DB14B"/>
<path d="M71.9175 34.4532L60.7519 19.002C60.5055 18.6614 60.1819 18.384 59.8076 18.1927C59.4333 18.0014 59.0189 17.9017 58.5985 17.9016H31.5282C31.1192 17.9032 30.716 17.9992 30.3502 18.1822C29.9843 18.3651 29.6656 18.63 29.4188 18.9563L18.1249 33.8063C17.7731 34.2686 17.5828 34.8337 17.5835 35.4147V69.3932C17.5833 69.7422 17.6518 70.0879 17.7851 70.4104C17.9185 70.733 18.1141 71.0261 18.3607 71.2731C18.6073 71.5201 18.9002 71.716 19.2226 71.8498C19.545 71.9836 19.8905 72.0526 20.2396 72.0528H69.7659C70.1149 72.0526 70.4605 71.9836 70.7829 71.8498C71.1053 71.716 71.3981 71.5201 71.6448 71.2731C71.8914 71.0261 72.087 70.733 72.2203 70.4104C72.3537 70.0879 72.4222 69.7422 72.422 69.3932V35.9948C72.4189 35.4408 72.2425 34.9018 71.9175 34.4532ZM32.8466 23.2155H57.2415L58.9607 25.5956H31.0378L32.8466 23.2155ZM58.0079 61.912C58.0081 62.2637 57.9391 62.612 57.8046 62.937C57.6702 63.262 57.473 63.5573 57.2244 63.8061C56.9758 64.0549 56.6806 64.2523 56.3557 64.3869C56.0308 64.5216 55.6825 64.5909 55.3308 64.5909H34.6677C33.9693 64.573 33.3055 64.283 32.8179 63.7827C32.3303 63.2824 32.0574 62.6115 32.0574 61.9128C32.0574 61.2142 32.3303 60.5433 32.8179 60.043C33.3055 59.5427 33.9693 59.2527 34.6677 59.2348H52.6536V51.4635H41.1329L41.7042 52.0331C42.1937 52.538 42.465 53.2152 42.4595 53.9185C42.454 54.6217 42.1722 55.2946 41.6749 55.7919C41.1776 56.2892 40.5048 56.5709 39.8015 56.5764C39.0983 56.5819 38.4211 56.3106 37.9161 55.8211L32.7745 50.6795C32.7306 50.6356 32.6901 50.5916 32.6515 50.5459L32.6251 50.5143C32.5447 50.4207 32.4713 50.3215 32.4054 50.2172V50.2014C32.3386 50.0946 32.2798 49.983 32.2296 49.8674C32.1791 49.7534 32.1368 49.6359 32.103 49.5159V49.5C32.0721 49.3845 32.0486 49.2671 32.0327 49.1485C32.0319 49.1368 32.0319 49.125 32.0327 49.1133C32.0327 49.0588 32.0204 49.0061 32.0169 48.9516V48.9358C32.0169 48.8795 32.0169 48.8233 32.0169 48.76C32.0178 48.7448 32.0178 48.7295 32.0169 48.7143C32.0169 48.6598 32.0169 48.6053 32.0257 48.5508C32.0264 48.5479 32.0264 48.5449 32.0257 48.542C32.0257 48.484 32.0397 48.4243 32.0485 48.3663V48.3311C32.0711 48.2085 32.1017 48.0876 32.1399 47.969V47.9567C32.1808 47.8311 32.2313 47.7088 32.2911 47.5911C32.321 47.5313 32.3526 47.4733 32.3878 47.4153C32.4194 47.3643 32.4528 47.3133 32.488 47.2641L32.5021 47.243C32.5372 47.1938 32.5724 47.1463 32.611 47.0989L32.6304 47.0778C32.6603 47.0409 32.6937 47.004 32.7271 46.9688L32.7622 46.9319L32.7868 46.9055L37.8845 41.8079C38.3965 41.3688 39.0553 41.1392 39.7293 41.1649C40.4033 41.1907 41.0427 41.4698 41.5198 41.9467C41.9968 42.4235 42.2763 43.0628 42.3023 43.7367C42.3284 44.4107 42.0991 45.0697 41.6603 45.5819L41.1329 46.1092H55.3325C56.0419 46.1097 56.7222 46.3917 57.2238 46.8933C57.7254 47.395 58.0074 48.0752 58.0079 48.7846V61.912ZM25.1368 33.344L26.9896 30.9094H62.7962L64.554 33.344H25.1368Z" fill="white"/>
</g>
<defs>
<clipPath id="clip0_229_250">
<rect width="90" height="90" fill="white"/>
</clipPath>
</defs>
</svg>
