<svg width="100" height="39" viewBox="0 0 100 39" fill="none" xmlns="http://www.w3.org/2000/svg">
<path fill-rule="evenodd" clip-rule="evenodd" d="M5.27587 0.148666C5.89923 0.148666 6.43357 0.234668 6.87867 0.40713C7.32399 0.579592 7.68852 0.810453 7.97201 1.09949C8.25596 1.38875 8.46458 1.72819 8.59811 2.11737C8.73164 2.50678 8.79852 2.92379 8.79852 3.36886C8.79852 3.81393 8.73164 4.23368 8.59811 4.62879C8.46458 5.02367 8.25573 5.36586 7.97201 5.65489C7.68829 5.94415 7.32376 6.17501 6.87867 6.34725C6.43334 6.51971 5.89923 6.60594 5.27587 6.60594H1.53592V12.5796H0V0.148438H5.27587V0.148666ZM86.3095 0.148438H99.9998V0.489483H86.6337L86.7957 0.859499H99.9998V1.20054H86.945L87.1071 1.57056H99.9998V1.91161H87.2563L87.4184 2.28162H99.9998V2.62244H87.5677L87.7297 2.99269H100V3.3335H87.8792L88.0413 3.70375H100V4.04456H88.1904L88.3524 4.41481H99.9998V4.75563H88.5017L88.6637 5.12587H99.9998V5.46669H88.813L88.9751 5.83693H100V6.17775H89.1244L89.2864 6.54799H99.9998V6.88881H89.4355L89.5975 7.25928H99.9995V7.6001H89.7466L89.9087 7.97058H99.9993V8.31139H90.0577L90.2198 8.68164H99.9993V9.02245H90.369L90.5311 9.39247H99.9993V9.73352H90.6804L90.8424 10.1035H99.9993V10.4446H90.9917L91.1538 10.8146H99.9993V11.1556H91.3031L91.4651 11.5257H99.9993V11.8667H91.6146L91.7767 12.2367H99.9995V12.5778H91.926L91.9271 12.58H90.341L88.6546 8.74232H82.8613L81.175 12.58H80.6742L86.1171 0.148894H86.3095V0.148666V0.148438ZM17.1378 16.1577H17.9917V38.0827H17.1378L0.853899 17.276V38.0827H0V16.1577H5.39821L17.1378 30.5263V16.1577ZM24.1167 17.0109V26.6934H34.6583V27.5468H24.1167V37.2293H37.0728V38.0827H21.4075V16.1577H37.0728V17.0109H24.1167ZM51.9431 26.3694L61.3365 38.0825H55.6612L48.9251 29.8271L42.5496 38.0825H41.4307L49.6462 27.8408L40.2529 16.1575H46.5383L53.2392 23.3904L59.069 16.1575H60.1585L51.9429 26.3694H51.9431ZM81.3012 16.1575H82.1549V30.0185C82.1549 31.137 81.9195 32.1864 81.4484 33.1675C80.9771 34.1485 80.3441 35.0021 79.5491 35.728C78.7541 36.4539 77.8315 37.0278 76.7811 37.4496C75.7309 37.8712 74.6364 38.0822 73.4979 38.0822H73.3212C72.1824 38.0822 71.0882 37.9105 70.038 37.5671C68.9876 37.2238 68.0649 36.7135 67.2699 36.0369C66.4747 35.36 65.8418 34.5212 65.3709 33.5207C64.8997 32.5201 64.664 31.3528 64.664 30.0185V16.1575H67.3731V29.6948C67.3731 30.8329 67.5596 31.8529 67.9323 32.7555C68.3053 33.658 68.8109 34.4231 69.4489 35.0509C70.0871 35.6787 70.8182 36.1594 71.6426 36.4929C72.4671 36.8264 73.3308 36.9932 74.2337 36.9932H74.4401C75.3232 36.9932 76.1824 36.7824 77.0164 36.3606C77.8507 35.9386 78.582 35.3993 79.2102 34.7418C79.8385 34.0846 80.3439 33.3391 80.7267 32.5053C81.1095 31.6715 81.301 30.8425 81.301 30.0183V16.1573L81.3012 16.1575ZM93.8748 16.9815C93.07 16.9618 92.3142 17.0501 91.6073 17.2463C90.9006 17.4425 90.2823 17.727 89.7521 18.0997C89.2223 18.4725 88.8 18.9187 88.4859 19.4288C88.1719 19.9391 88.005 20.4982 87.9854 21.1064C87.9658 21.6753 88.1032 22.2149 88.3974 22.73C88.6921 23.24 89.0847 23.7059 89.5752 24.1279C90.0661 24.5497 90.6256 24.9174 91.2538 25.2313C91.8819 25.5452 92.5299 25.7905 93.1971 25.9721C94.2768 26.2663 95.2386 26.6441 96.0829 27.1049C96.927 27.5662 97.6435 28.0911 98.2326 28.6794C98.8215 29.268 99.2632 29.9106 99.5576 30.5973C99.8521 31.2839 99.9895 31.9902 99.9701 32.7161C99.9308 33.4865 99.7001 34.2073 99.278 34.8839C98.8558 35.5608 98.2965 36.1448 97.5997 36.64C96.9028 37.1305 96.093 37.5131 95.1704 37.788C94.2478 38.0624 93.2761 38.1803 92.2553 38.1411H92.2259C91.2442 38.1019 90.3165 37.9349 89.443 37.6406C88.5695 37.3463 87.7891 36.9441 87.102 36.434C86.7683 36.1594 86.4741 35.8845 86.2187 35.6101C85.9635 35.3354 85.7476 35.0313 85.5709 34.6978L85.5415 34.6389L86.2187 34.2858L86.2481 34.3741C86.5818 34.9236 87.0336 35.4237 87.6028 35.8751C88.1525 36.2869 88.7758 36.6108 89.4727 36.8463C90.1695 37.0817 90.9009 37.2094 91.6664 37.229C92.4713 37.2683 93.2222 37.185 93.9191 36.9788C94.6159 36.7728 95.2295 36.4835 95.7593 36.1106C96.2893 35.7378 96.7115 35.2964 97.0256 34.7863C97.3397 34.276 97.5164 33.7169 97.5556 33.1087C97.5753 32.5395 97.4378 32.0002 97.1436 31.4899C96.8489 30.9798 96.4564 30.514 95.9658 30.0922C95.4751 29.6702 94.9156 29.3024 94.2872 28.9885C93.6593 28.6746 93.0115 28.4294 92.3439 28.2528C91.2643 27.9588 90.2974 27.5808 89.4432 27.12C88.5893 26.6587 87.8726 26.1338 87.2938 25.5455C86.7145 24.9569 86.273 24.3241 85.9685 23.6475C85.6643 22.9706 85.5319 22.2691 85.5711 21.5433C85.5908 20.7583 85.8117 20.0324 86.2338 19.3654C86.6558 18.6983 87.22 18.1196 87.9269 17.6291C88.6336 17.1384 89.4435 16.7609 90.3563 16.496C91.2693 16.2312 92.2457 16.1084 93.2861 16.1281C94.2873 16.1477 95.2247 16.2998 96.0984 16.5843C96.972 16.8688 97.7524 17.2757 98.4394 17.8057C98.7731 18.0607 99.0626 18.3306 99.3079 18.6151C99.5533 18.8998 99.774 19.1988 99.9706 19.5127L100 19.5714L99.3228 19.9245L99.2931 19.8656C98.9594 19.3163 98.4983 18.8065 97.9092 18.3354C97.3792 17.9232 96.7656 17.6045 96.0685 17.3789C95.3717 17.153 94.6406 17.0207 93.875 16.9815H93.8748ZM88.4378 8.25824L85.7496 2.1176L83.0784 8.25824H88.4378ZM77.6357 3.36909C77.6357 3.76967 77.58 4.15064 77.4688 4.51199C77.3574 4.87357 77.1878 5.19613 76.9596 5.47969C76.7313 5.76348 76.4364 5.99981 76.0746 6.18893C75.7128 6.37804 75.2814 6.50055 74.7806 6.55598L78.8712 12.5798H77.018L72.9441 6.60617H70.3728V12.5798H68.8369V0.148666H74.1128C74.7361 0.148666 75.2705 0.234668 75.7156 0.40713C76.1609 0.579592 76.5254 0.810453 76.8089 1.09949C77.0929 1.38875 77.3015 1.72819 77.435 2.11737C77.5685 2.50678 77.6354 2.92379 77.6354 3.36886L77.6357 3.36909ZM73.7788 6.12232C74.2684 6.12232 74.6638 6.05 74.9644 5.90537C75.2648 5.76074 75.4985 5.56318 75.6656 5.31864C75.8324 5.07386 75.9466 4.7846 76.008 4.44811C76.0691 4.11437 76.0997 3.75576 76.0997 3.37753C76.0997 2.9993 76.0691 2.6432 76.008 2.31516C75.9468 1.98415 75.8327 1.69489 75.6656 1.44464C75.4987 1.19439 75.265 0.994092 74.9644 0.849462C74.6638 0.70506 74.2687 0.632516 73.7788 0.632516H70.3728V6.12232H73.7788ZM66.4327 0.148666H66.9168V8.00799C66.9168 8.64194 66.7833 9.23712 66.516 9.79351C66.249 10.3497 65.8899 10.8338 65.4391 11.2453C64.9883 11.6568 64.4651 11.9821 63.8696 12.2214C63.2741 12.4605 62.6535 12.5803 62.008 12.5803H61.9078C61.2623 12.5803 60.6419 12.4829 60.0462 12.2883C59.4506 12.0937 58.9275 11.8044 58.4767 11.4207C58.0259 11.0368 57.6668 10.5611 57.3998 9.99403C57.1325 9.42669 56.999 8.7649 56.999 8.00844V0.149122H58.5349V7.8248C58.5349 8.46994 58.6406 9.04869 58.8522 9.56014C59.0635 10.0718 59.3502 10.5057 59.712 10.8618C60.0738 11.2177 60.4883 11.4903 60.9557 11.6794C61.4234 11.8688 61.913 11.9632 62.425 11.9632H62.5417C63.0427 11.9632 63.5295 11.8437 64.0025 11.6044C64.4754 11.3653 64.8902 11.0594 65.2465 10.6866C65.6025 10.3139 65.8892 9.89115 66.1063 9.41848C66.3234 8.9458 66.4318 8.47564 66.4318 8.00844V0.149122L66.4327 0.148666ZM55.1798 0.632516H50.4047V12.58H48.8688V0.632516H44.0937V0.148666H55.1798V0.632516ZM41.6728 0.148666H42.157V12.5798H41.6728L32.4402 0.782622V12.5798H31.956V0.148666H33.9428L41.6728 10.0269V0.148666ZM22.8065 0.632516V6.12232H28.7835V6.60617H22.8065V12.096H30.1526V12.5798H21.2703V0.148666H30.1526V0.632516H22.8065ZM19.1501 12.1295V12.6133H10.6186V0.148666H12.1545V12.1293H19.1501V12.1295ZM4.94193 6.12232C5.43154 6.12232 5.82687 6.05 6.12748 5.90537C6.42787 5.76074 6.6616 5.56318 6.82868 5.31864C6.99554 5.07386 7.10966 4.7846 7.17106 4.44811C7.23224 4.11437 7.26282 3.75576 7.26282 3.37753C7.26282 2.9993 7.23224 2.6432 7.17106 2.31516C7.10989 1.98415 6.99576 1.69489 6.82868 1.44464C6.66183 1.19439 6.4281 0.994092 6.12748 0.849462C5.82687 0.70506 5.43177 0.632516 4.94193 0.632516H1.53592V6.12232H4.94193Z" fill="black"/>
</svg>
