<svg width="32" height="32" viewBox="0 0 32 32" fill="none" xmlns="http://www.w3.org/2000/svg">
<path d="M16.0006 17.3819L10.0724 11.4539H21.9286L16.0006 17.3819ZM16.0006 19.0987C15.8188 19.0987 15.6365 19.0292 15.4979 18.8905L9.06694 12.4596V19.8288C9.06694 20.2232 9.38551 20.5439 9.77698 20.5439H22.2189C22.6134 20.5439 22.9341 20.223 22.9341 19.8288V12.4596L16.5032 18.8905C16.3647 19.0294 16.1825 19.0987 16.0006 19.0987ZM31.8196 4.44378V27.5544C31.8196 29.9081 29.9068 31.8232 27.5558 31.8232H4.44543C2.09147 31.8232 0.17627 29.9081 0.17627 27.5544V4.44378C0.17627 2.08983 2.09129 0.174805 4.44543 0.174805H27.5558C29.9069 0.174805 31.8196 2.08983 31.8196 4.44378ZM24.3565 10.7428C24.3565 10.696 24.3517 10.6495 24.3425 10.6034C24.3384 10.5824 24.3306 10.5631 24.3245 10.543C24.3174 10.5188 24.3119 10.4943 24.3021 10.4708C24.2922 10.447 24.2787 10.4253 24.2664 10.4029C24.2564 10.3846 24.2484 10.3659 24.2367 10.3483C24.2108 10.3094 24.1811 10.2729 24.1482 10.2399C24.1478 10.2397 24.1475 10.2393 24.1471 10.2392C24.1144 10.2064 24.0785 10.1773 24.0397 10.1515C24.0218 10.1396 24.0024 10.1312 23.9837 10.1211C23.9617 10.1092 23.9407 10.0959 23.9174 10.0863C23.8941 10.0767 23.87 10.0712 23.8461 10.064C23.8257 10.058 23.8058 10.05 23.7846 10.0459C23.7414 10.0374 23.6977 10.0333 23.654 10.0328C23.6509 10.0328 23.6484 10.0319 23.6454 10.0319H8.35583C8.3528 10.0319 8.35031 10.0326 8.34729 10.0328C8.30356 10.0333 8.25983 10.0374 8.21663 10.0459C8.19547 10.05 8.17591 10.058 8.15529 10.064C8.13129 10.0712 8.10711 10.0767 8.08383 10.0863C8.06054 10.0959 8.03956 10.109 8.01769 10.1211C7.99902 10.1312 7.97929 10.1396 7.96151 10.1517C7.92276 10.1775 7.88685 10.2068 7.85414 10.2393C7.85378 10.2395 7.85343 10.2399 7.85307 10.24C7.82 10.2731 7.79049 10.3096 7.76454 10.3485C7.7528 10.3661 7.7448 10.3851 7.73467 10.4034C7.72258 10.4256 7.70889 10.4472 7.69929 10.4708C7.68934 10.4944 7.68383 10.519 7.67671 10.5433C7.67085 10.5634 7.66303 10.5828 7.65876 10.6034C7.64951 10.6495 7.64471 10.696 7.64471 10.7428V19.8287C7.64471 21.0072 8.60134 21.9659 9.77698 21.9659H22.2189C23.3976 21.9659 24.3564 21.0072 24.3564 19.8287L24.3565 10.7428Z" fill="#3BFA83"/>
</svg>
