<svg width="90" height="90" viewBox="0 0 90 90" fill="none" xmlns="http://www.w3.org/2000/svg">
<g clip-path="url(#clip0_230_275)">
<path d="M68.7867 0H21.2133C9.49751 0 0 9.49751 0 21.2133V68.7867C0 80.5025 9.49751 90 21.2133 90H68.7867C80.5025 90 90 80.5025 90 68.7867V21.2133C90 9.49751 80.5025 0 68.7867 0Z" fill="#0DB14B"/>
<path d="M72.4939 26.5851C72.3598 25.6807 71.8798 24.8637 71.1552 24.3063C70.4305 23.7488 69.5177 23.4945 68.6091 23.5969C62.7433 24.2543 57.4576 23.3771 52.8943 20.9883C49.5931 19.2586 47.8634 17.3109 47.7263 17.1527C47.403 16.7388 46.9895 16.404 46.5174 16.1738C46.0453 15.9435 45.527 15.8239 45.0017 15.8239C44.4765 15.8239 43.9581 15.9435 43.486 16.1738C43.0139 16.404 42.6005 16.7388 42.2771 17.1527C42.14 17.3109 40.4103 19.2621 37.1091 20.9883C32.5388 23.3771 27.2654 24.2543 21.3943 23.5969C20.4858 23.4945 19.573 23.7488 18.8483 24.3063C18.1236 24.8637 17.6436 25.6807 17.5095 26.5851C17.4533 26.9613 16.1648 35.942 18.4974 46.1812C21.6791 60.1681 30.0586 69.7254 42.699 73.8281C44.1954 74.3085 45.8046 74.3085 47.3009 73.8281C59.9572 69.7342 68.3209 60.1769 71.506 46.19C73.8386 35.942 72.5502 26.9613 72.4939 26.5851ZM64.5838 44.8066C61.9136 56.2869 55.3693 63.791 45.1336 67.1027C45.0505 67.1238 44.9635 67.1238 44.8804 67.1027C34.6447 63.7875 28.1004 56.2869 25.4302 44.8066C24.1435 39.2748 24.0838 34.0593 24.2314 30.8566C34.6289 31.0886 41.4984 27.0439 45 24.2279C48.4048 26.9666 54.9966 30.8672 64.923 30.8672C65.2043 30.8672 65.489 30.8672 65.7756 30.8566C65.9179 34.0611 65.8634 39.2748 64.5767 44.8066H64.5838Z" fill="white"/>
<path d="M52.5709 37.1443L44.3092 45.406L40.4332 41.5388C39.7712 40.8768 38.8733 40.5049 37.9371 40.5049C37.0009 40.5049 36.103 40.8768 35.441 41.5388C34.779 42.2008 34.4071 43.0987 34.4071 44.0349C34.4071 44.9711 34.779 45.869 35.441 46.531L41.8113 52.9013C42.139 53.2296 42.5282 53.4901 42.9567 53.6678C43.3851 53.8455 43.8445 53.937 44.3083 53.937C44.7722 53.937 45.2315 53.8455 45.6599 53.6678C46.0884 53.4901 46.4776 53.2296 46.8053 52.9013L57.5666 42.1417C58.2175 41.4771 58.5798 40.5826 58.5749 39.6524C58.5701 38.7222 58.1984 37.8315 57.5407 37.1737C56.8829 36.516 55.9922 36.1443 55.062 36.1395C54.1318 36.1346 53.2372 36.4969 52.5727 37.1478L52.5709 37.1443Z" fill="white"/>
</g>
<defs>
<clipPath id="clip0_230_275">
<rect width="90" height="90" fill="white"/>
</clipPath>
</defs>
</svg>
