<svg width="47" height="47" viewBox="0 0 47 47" fill="none" xmlns="http://www.w3.org/2000/svg">
<path d="M23.2353 46.4706C36.0678 46.4706 46.4706 36.0678 46.4706 23.2353C46.4706 10.4028 36.0678 0 23.2353 0C10.4028 0 0 10.4028 0 23.2353C0 36.0678 10.4028 46.4706 23.2353 46.4706Z" fill="#00C54A"/>
<path fill-rule="evenodd" clip-rule="evenodd" d="M19.9757 25.6235V19.0869C19.9757 18.2328 20.6729 17.5181 21.527 17.5181C22.3986 17.5181 23.0958 18.2328 23.0958 19.0869V21.6144C23.305 21.5098 23.5316 21.4575 23.7582 21.4575C24.4554 21.4575 25.0481 21.9281 25.2572 22.5556C25.4664 22.4336 25.7279 22.3639 25.9893 22.3639C26.7737 22.3639 27.4361 22.9565 27.5407 23.7235C27.7499 23.6363 27.9765 23.5666 28.2205 23.5666C29.0746 23.5666 29.7718 24.2813 29.7718 25.1354V28.883C29.7718 30.5564 28.9874 31.9683 28.6214 33.6242H20.2546C19.3133 30.9224 18.25 29.4234 17.6748 28.7436C16.5767 27.4537 16.0712 25.0657 18.2675 24.7868C18.3546 24.7868 18.4592 24.8042 18.5464 24.8391L19.9757 25.6235ZM28.9874 38.1214H20.0629C19.8014 38.1214 19.6097 37.9122 19.6097 37.6682V34.548C19.6097 34.2866 19.8014 34.0948 20.0629 34.0948H28.9874C29.2315 34.0948 29.4406 34.2866 29.4406 34.548V37.6682C29.4406 37.9122 29.2315 38.1214 28.9874 38.1214ZM27.4361 36.326C27.7324 36.326 27.7324 35.8902 27.4361 35.8902C27.3489 35.8902 27.2444 35.8728 27.1572 35.8728C26.9655 35.8728 26.338 35.8205 26.1985 35.9774C26.1636 36.0122 26.1636 36.0645 26.1636 36.0994C26.1636 36.1517 26.1636 36.204 26.1985 36.2388C26.3554 36.3957 27.2095 36.326 27.4361 36.326ZM31.7415 19.1566C28.7608 19.1566 26.338 16.7337 26.338 13.7705C26.338 10.7898 28.7608 8.36694 31.7415 8.36694C34.7222 8.36694 37.1276 10.7898 37.1276 13.7705C37.1276 16.7337 34.7222 19.1566 31.7415 19.1566ZM33.4497 12.3586C33.6589 12.1494 33.3451 11.8357 33.1534 12.0448L31.7415 13.4567L30.3296 12.0448C30.1204 11.8357 29.8067 12.1494 30.0159 12.3586L31.4278 13.7705L30.0159 15.165C29.8764 15.3044 29.981 15.5484 30.1727 15.5484C30.225 15.5484 30.2948 15.531 30.3296 15.4787L31.7415 14.0668L33.1534 15.4787C33.1883 15.531 33.2406 15.5484 33.3103 15.5484C33.502 15.5484 33.5892 15.3044 33.4497 15.165L32.0553 13.7705L33.4497 12.3586ZM14.7465 19.1566C11.7658 19.1566 9.3429 16.7337 9.3429 13.7705C9.3429 10.7898 11.7658 8.36694 14.7465 8.36694C17.7271 8.36694 20.1326 10.7898 20.1326 13.7705C20.1326 16.7337 17.7271 19.1566 14.7465 19.1566ZM13.718 15.5484C13.7878 15.5484 13.84 15.531 13.8749 15.4787L17.0125 12.3586C17.2216 12.1494 16.9079 11.8357 16.6987 12.0448L13.718 15.0255L12.7942 14.0843C12.585 13.8751 12.2713 14.1888 12.4804 14.398L13.5786 15.4787C13.6134 15.531 13.6657 15.5484 13.718 15.5484Z" fill="white"/>
</svg>
