<svg width="50" height="50" viewBox="0 0 50 50" fill="none" xmlns="http://www.w3.org/2000/svg">
<path d="M50 25C50 38.8073 38.8073 50 25 50C11.1927 50 0 38.8073 0 25C0 11.1927 11.1927 0 25 0C38.8073 0 50 11.1927 50 25Z" fill="#00C54A"/>
<path d="M42.2552 27.3448V22.655L37.7031 21.4442C37.4258 20.4639 37.0333 19.5205 36.5297 18.6244L38.8578 14.5812L35.5467 11.2701L31.5031 13.5978C30.6074 13.0946 29.664 12.7017 28.6833 12.4248L27.4729 7.87231H22.7827L21.5719 12.4248C20.5916 12.7017 19.6482 13.0943 18.7525 13.5978L14.7089 11.2701L11.3978 14.5812L13.7259 18.6244C13.2223 19.5205 12.8294 20.4639 12.5525 21.4442L8 22.655V27.3448L12.5525 28.5556C12.8298 29.5364 13.2223 30.4794 13.7259 31.3754L11.3978 35.4186L14.7089 38.7298L18.7525 36.4021C19.6482 36.9052 20.5916 37.2981 21.5719 37.5755L22.7827 42.1275H27.4729L28.6833 37.5755C29.664 37.2981 30.6074 36.9056 31.5031 36.4021L35.5467 38.7298L38.8578 35.4186L36.5297 31.3754C37.0333 30.4794 37.4258 29.5364 37.7031 28.5556L42.2552 27.3448ZM35.2366 26.1802L35.0531 27.0663C34.7967 28.3042 34.3092 29.4769 33.6035 30.5515L33.1087 31.3052L35.1984 34.9349L35.0626 35.0707L31.4325 32.981L30.6791 33.4758C29.6045 34.1815 28.4319 34.669 27.1936 34.9254L26.3079 35.1089L25.2199 39.1978H25.0349L23.9473 35.1089L23.0612 34.9254C21.8229 34.669 20.6503 34.1815 19.5761 33.4758L18.8223 32.981L15.1926 35.0707L15.0564 34.9349L17.1465 31.3049L16.6514 30.5515C15.946 29.4769 15.4581 28.3042 15.2018 27.0663L15.0187 26.1802L10.9293 25.0922V24.9072L15.0187 23.8197L15.2018 22.9335C15.4581 21.6956 15.946 20.523 16.6517 19.448L17.1465 18.6946L15.0564 15.0649L15.1926 14.9287L18.8223 17.0188L19.5761 16.5237C20.6507 15.8183 21.8233 15.3304 23.0612 15.0741L23.9473 14.891L25.0349 10.8016H25.2203L26.3079 14.891L27.194 15.0741C28.4319 15.3304 29.6045 15.8183 30.6791 16.5237L31.4329 17.0188L35.0626 14.9287L35.1988 15.0649L33.1087 18.6946L33.6035 19.4484C34.3092 20.523 34.7971 21.6956 35.0535 22.9335L35.2366 23.8197L39.3259 24.9072V25.0922L35.2366 26.1802Z" fill="white"/>
<path d="M28.9366 19.1855L25.194 22.9281L21.4514 19.1855L19.3796 21.2573L23.1226 24.9999L19.3796 28.7425L21.4514 30.8143L25.194 27.0713L28.9366 30.8143L31.0084 28.7425L27.2658 24.9999L31.0084 21.2573L28.9366 19.1855Z" fill="white"/>
</svg>
