<svg width="90" height="90" viewBox="0 0 90 90" fill="none" xmlns="http://www.w3.org/2000/svg">
<g clip-path="url(#clip0_229_256)">
<path d="M22.9396 24.6973H67.0607V50.9293H22.9396V24.6973ZM90 45C90 69.8131 69.8131 90 45 90C20.1869 90 0 69.8131 0 45C0 20.1869 20.1869 0 45 0C69.8131 0 90 20.1869 90 45ZM62.627 67.6981C57.9538 62.9005 51.6939 60.2585 45.0004 60.2585C38.3066 60.2585 32.0467 62.9005 27.3737 67.6981C26.5607 68.5325 26.5785 69.8681 27.4129 70.6809C27.823 71.0803 28.354 71.2793 28.8846 71.2793C29.4337 71.2793 29.9823 71.0662 30.3957 70.6417C34.2679 66.6664 39.4546 64.4773 45.0005 64.4773C50.5462 64.4773 55.733 66.6666 59.6053 70.6417C60.4183 71.4765 61.7537 71.4938 62.5881 70.6809C63.4224 69.8681 63.44 68.5327 62.627 67.6981ZM71.2795 22.5879C71.2795 21.4228 70.3352 20.4785 69.1701 20.4785H20.8303C19.6652 20.4785 18.7209 21.4228 18.7209 22.5879V53.0387C18.7209 54.2036 19.6652 55.148 20.8303 55.148H69.1701C70.3352 55.148 71.2795 54.2036 71.2795 53.0387V22.5879Z" fill="#0DB14B"/>
</g>
<defs>
<clipPath id="clip0_229_256">
<rect width="90" height="90" fill="white"/>
</clipPath>
</defs>
</svg>
