<svg width="32" height="32" viewBox="0 0 32 32" fill="none" xmlns="http://www.w3.org/2000/svg">
<path d="M16 24C17 24 17.86 21 18 17H14C14.14 21 15 24 16 24Z" fill="#3BFA83"/>
<path d="M16 8C15 8 14.14 11 14 15H18C17.86 11 17 8 16 8Z" fill="#3BFA83"/>
<path d="M8.06 15.0003H12.06C12.0384 12.8166 12.3763 10.6443 13.06 8.57031C11.7271 9.09611 10.5599 9.97023 9.6804 11.1013C8.80085 12.2324 8.24123 13.579 8.06 15.0003Z" fill="#3BFA83"/>
<path d="M8.06 17C8.24123 18.4213 8.80085 19.7679 9.6804 20.899C10.5599 22.0301 11.7271 22.9042 13.06 23.43C12.3559 21.3594 11.9978 19.187 12 17H8.06Z" fill="#3BFA83"/>
<path d="M19 8.57031C19.6837 10.6443 20.0216 12.8166 20 15.0003H24C23.8188 13.579 23.2591 12.2324 22.3796 11.1013C21.5 9.97023 20.3329 9.09611 19 8.57031Z" fill="#3BFA83"/>
<path d="M19 23.43C20.3329 22.9042 21.5 22.0301 22.3796 20.899C23.2591 19.7679 23.8188 18.4213 24 17H20C20.0216 19.1837 19.6837 21.356 19 23.43Z" fill="#3BFA83"/>
<path d="M24 0H8C5.87827 0 3.84344 0.842855 2.34315 2.34315C0.842855 3.84344 0 5.87827 0 8L0 24C0 26.1217 0.842855 28.1566 2.34315 29.6569C3.84344 31.1571 5.87827 32 8 32H24C26.1217 32 28.1566 31.1571 29.6569 29.6569C31.1571 28.1566 32 26.1217 32 24V8C32 5.87827 31.1571 3.84344 29.6569 2.34315C28.1566 0.842855 26.1217 0 24 0ZM16.26 26H15.74C13.0878 26 10.5443 24.9464 8.66893 23.0711C6.79357 21.1957 5.74 18.6522 5.74 16C5.74 13.3478 6.79357 10.8043 8.66893 8.92893C10.5443 7.05357 13.0878 6 15.74 6H16.26C18.9122 6 21.4557 7.05357 23.3311 8.92893C25.2064 10.8043 26.26 13.3478 26.26 16C26.26 18.6522 25.2064 21.1957 23.3311 23.0711C21.4557 24.9464 18.9122 26 16.26 26Z" fill="#3BFA83"/>
</svg>
